<?xml version="1.0" encoding="UTF-8" standalone="no"?>
<!-- Created with Inkscape (http://www.inkscape.org/) -->

<svg
   xmlns:dc="http://purl.org/dc/elements/1.1/"
   xmlns:cc="http://creativecommons.org/ns#"
   xmlns:rdf="http://www.w3.org/1999/02/22-rdf-syntax-ns#"
   xmlns:svg="http://www.w3.org/2000/svg"
   xmlns="http://www.w3.org/2000/svg"
   xmlns:sodipodi="http://sodipodi.sourceforge.net/DTD/sodipodi-0.dtd"
   xmlns:inkscape="http://www.inkscape.org/namespaces/inkscape"
   id="svg3039"
   version="1.1"
   inkscape:version="0.48.5 r10040"
   width="278.51001"
   height="278.60556"
   sodipodi:docname="logo_319.svg">
  <metadata
     id="metadata3045">
    <rdf:RDF>
      <cc:Work
         rdf:about="">
        <dc:format>image/svg+xml</dc:format>
        <dc:type
           rdf:resource="http://purl.org/dc/dcmitype/StillImage" />
        <dc:title></dc:title>
      </cc:Work>
    </rdf:RDF>
  </metadata>
  <defs
     id="defs3043" />
  <sodipodi:namedview
     pagecolor="#ffffff"
     bordercolor="#666666"
     borderopacity="1"
     objecttolerance="10"
     gridtolerance="10"
     guidetolerance="10"
     inkscape:pageopacity="0"
     inkscape:pageshadow="2"
     inkscape:window-width="1280"
     inkscape:window-height="697"
     id="namedview3041"
     showgrid="false"
     inkscape:zoom="2.8284271"
     inkscape:cx="160.31332"
     inkscape:cy="108.08557"
     inkscape:window-x="0"
     inkscape:window-y="0"
     inkscape:window-maximized="1"
     inkscape:current-layer="svg3039"
     fit-margin-top="0"
     fit-margin-left="0"
     fit-margin-right="0"
     fit-margin-bottom="0" />
  <path
     style="fill:#1abc9c;fill-opacity:1"
     d="m 120.54687,277.65069 c -13.78984,-1.90701 -19.16719,-4.0624 -27.818021,-8.28783 0,-15.83241 0,-31.66483 0,-47.49725 27.707301,12.7009 61.646421,17.48215 89.200871,1.69115 31.30084,-15.76052 53.42261,-49.76377 50.69147,-85.32338 C 232.21909,87.936212 185.6384,41.874939 134.71676,46.189061 86.637009,47.926858 44.105707,92.180116 46.337238,140.63837 45.658799,174.64001 46.461619,208.67106 44.816773,242.65166 -3.5584159,200.75592 -13.659271,123.8065 18.850544,69.395922 45.861097,21.140225 103.64101,-6.1950867 158.10056,1.1974364 210.64947,6.8839574 256.2262,46.749202 271.7432,96.830566 c 8.33959,26.303044 8.72535,55.050934 2.52086,81.819834 -14.90435,56.56697 -69.92656,100.51787 -128.93454,99.42851 -7.20013,0.24424 -9.47021,1.26147 -24.78265,-0.42822 z m 4.52013,-93.06441 c -33.740421,-10.66272 -41.027331,-63.19051 -11.66258,-82.79881 20.92319,-15.080218 53.65486,-7.940514 65.58698,15.22934 12.94261,21.11691 6.29479,53.27053 -17.42141,63.63033 -11.10977,5.71836 -24.44403,7.67327 -36.50299,3.93914 z"
     id="path3351"
     inkscape:connector-curvature="0"
     sodipodi:nodetypes="ccccccccccccccccccc" />
  <g
     inkscape:groupmode="layer"
     id="layer1"
     inkscape:label="Layer"
     style="display:inline"
     transform="translate(-18.099581,-9.1767736)" />
</svg>
