<?xml version="1.0" encoding="UTF-8" standalone="no"?>
<!-- Created with Inkscape (http://www.inkscape.org/) -->

<svg
   xmlns:dc="http://purl.org/dc/elements/1.1/"
   xmlns:cc="http://creativecommons.org/ns#"
   xmlns:rdf="http://www.w3.org/1999/02/22-rdf-syntax-ns#"
   xmlns:svg="http://www.w3.org/2000/svg"
   xmlns="http://www.w3.org/2000/svg"
   xmlns:sodipodi="http://sodipodi.sourceforge.net/DTD/sodipodi-0.dtd"
   xmlns:inkscape="http://www.inkscape.org/namespaces/inkscape"
   id="svg4669"
   version="1.1"
   inkscape:version="0.48.5 r10040"
   width="1200"
   height="1200"
   sodipodi:docname="logo.png">
  <metadata
     id="metadata4675">
    <rdf:RDF>
      <cc:Work
         rdf:about="">
        <dc:format>image/svg+xml</dc:format>
        <dc:type
           rdf:resource="http://purl.org/dc/dcmitype/StillImage" />
        <dc:title></dc:title>
      </cc:Work>
    </rdf:RDF>
  </metadata>
  <defs
     id="defs4673" />
  <sodipodi:namedview
     pagecolor="#ffffff"
     bordercolor="#666666"
     borderopacity="1"
     objecttolerance="10"
     gridtolerance="10"
     guidetolerance="10"
     inkscape:pageopacity="0"
     inkscape:pageshadow="2"
     inkscape:window-width="1280"
     inkscape:window-height="696"
     id="namedview4671"
     showgrid="false"
     inkscape:zoom="0.78"
     inkscape:cx="496.07843"
     inkscape:cy="663.49206"
     inkscape:window-x="0"
     inkscape:window-y="0"
     inkscape:window-maximized="1"
     inkscape:current-layer="svg4669" />
  <path
     style="fill:#000000;fill-opacity:1"
     d="m 585.46568,1075.9869 c -28.96588,-2.1699 -44.83156,-3.9508 -62.84673,-7.0545 -31.10921,-5.3597 -56.62943,-11.983 -85.69493,-22.2406 l -13.54167,-4.7791 0,-102.3047 0,-102.30463 7.70833,5.28924 c 38.84239,26.65257 86.65362,43.66165 140.20834,49.87983 14.11844,1.63927 54.66181,1.37322 69.58333,-0.45662 66.56141,-8.16248 124.21409,-33.00871 170.41667,-73.44344 31.41105,-27.48976 54.5329,-55.68547 71.97718,-87.77192 46.98258,-86.41818 51.90821,-193.3956 12.97312,-281.7569 -12.9456,-29.37941 -35.45829,-63.73587 -57.14253,-87.20477 -77.3328,-83.69752 -200.17571,-120.86406 -309.47444,-93.63255 -60.09124,14.97159 -115.49025,47.83756 -156.50427,92.8476 -41.12332,45.13 -68.77642,99.55602 -80.07283,157.59702 -5.31431,27.30495 -4.95333,12.28742 -5.27075,219.27308 -0.15903,103.69518 -0.55832,196.20622 -0.88731,205.58014 l -0.59817,17.04342 -10.83334,-9.285 C 262.46451,940.11941 238.24148,916.07208 227.82831,903.97058 165.47463,831.50723 125.28691,742.35773 111.35658,645.59824 100.60625,570.92685 106.68556,496.81426 129.31139,426.71215 155.05324,346.9556 193.58127,283.61696 251.65378,225.58577 293.30628,183.96292 336.70027,153.02304 389.5348,127.2767 447.13895,99.206111 501.55057,84.480985 566.29902,79.439935 c 50.06206,-3.897627 88.96584,-1.649166 136.25,7.87462 116.83965,23.533375 224.65874,90.311755 298.03958,184.592505 37.694,48.42969 69.7237,112.25714 85.7174,170.81352 8.3775,30.67169 13.3957,59.37654 16.3897,93.75 1.3571,15.58013 1.3571,61.91987 0,77.5 -5.9625,68.45414 -22.32,128.26084 -50.9405,186.25 -24.8227,50.29431 -55.50668,92.10664 -98.4796,134.19608 -81.27008,79.59914 -189.96988,129.36744 -305.72658,139.97724 -13.19909,1.2097 -53.42155,2.2418 -62.08334,1.593 z m 11.25,-316.72213 c -36.2246,-2.43057 -65.58146,-12.06316 -91.62683,-30.06464 -11.33585,-7.83487 -15.88018,-11.62944 -26.54858,-22.16846 -28.367,-28.02294 -46.10835,-61.52336 -53.69709,-101.39442 -2.45028,-12.87376 -2.62542,-42.71645 -0.32275,-54.99489 5.80602,-30.95926 13.47086,-51.48496 26.85251,-71.90845 7.61687,-11.62509 13.47008,-18.78584 23.64743,-28.93 28.9467,-28.85225 66.75733,-47.83981 107.11198,-53.78896 11.93772,-1.75988 35.73711,-2.01071 46.25,-0.48744 18.30473,2.65225 42.96679,10.30369 59.23734,18.37845 45.30428,22.48365 80.80946,67.28429 94.06398,118.69046 4.88946,18.96322 5.39481,23.34508 5.39621,46.79083 8.4e-4,20.4425 -0.12716,22.26776 -2.27241,32.30548 -6.96939,32.61039 -21.53559,61.67247 -43.32681,86.44452 -28.08053,31.92166 -72.25188,54.97813 -114.76498,59.90477 -8.77119,1.01645 -23.89044,1.63269 -30,1.22275 z"
     id="path4679"
     inkscape:connector-curvature="0" />
</svg>
